ffmpeg started on 2025-05-13 at 10:01:11
Report written to "D:\Convert\FFMetrics\reports\ssim_report-6.txt"
Log level: 32
Command line:
ffmpeg -hide_banner -nostdin -i "G:\\\xc0\xed\xe8\xec\xe5\\\xce\xed\xe3\xee\xe8\xed\xe3\xe8\\!_35_\xcb\xe5\xf2\xee_2024\\DreamCast-1\\\xd1\xeb\xe8\xf8\xea\xee\xec \xec\xed\xee\xe3\xee \xef\xf0\xee\xe8\xe3\xf0\xe0\xe2\xf8\xe8\xf5 \xe3\xe5\xf0\xee\xe8\xed\xfc!\\[DC] Make Heroine ga Oosugiru - 12_Telegram_HEVC.mkv" -i "G:\\\xc0\xed\xe8\xec\xe5\\\xce\xed\xe3\xee\xe8\xed\xe3\xe8\\!_35_\xcb\xe5\xf2\xee_2024\\DreamCast-1\\\xd1\xeb\xe8\xf8\xea\xee\xec \xec\xed\xee\xe3\xee \xef\xf0\xee\xe8\xe3\xf0\xe0\xe2\xf8\xe8\xf5 \xe3\xe5\xf0\xee\xe8\xed\xfc!\\[DC] Make Heroine ga Oosugiru - 12_Telegram.mp4" -lavfi "[0:v]settb=AVTB,setpts=PTS-STARTPTS,format=pix_fmts=yuv420p10,fps=24000/1001,scale=1920:1080:flags=bicubic[main];[1:v]settb=AVTB,setpts=PTS-STARTPTS,format=pix_fmts=yuv420p,fps=24000/1001,scale=1920:1080:flags=bicubic[ref];[main][ref]ssim=eof_action=endall:stats_file='D\\:/Convert/FFMetrics/logs/ssim_logfile-6.txt'" -f null -
Input #0, matroska,webm, from 'G:\Аниме\Онгоинги\!_35_Лето_2024\DreamCast-1\Слишком много проигравших героинь!\[DC] Make Heroine ga Oosugiru - 12_Telegram_HEVC.mkv':
  Metadata:
    COMPATIBLE_BRANDS: isomiso2avc1mp41
    MAJOR_BRAND     : isom
    MINOR_VERSION   : 512
    ENCODER         : Lavf61.7.100
  Duration: 00:24:06.70, start: -0.021000, bitrate: 985 kb/s
  Stream #0:0: Video: hevc (Main 10), yuv420p10le(tv, bt709, progressive), 1920x1080 [SAR 1:1 DAR 16:9], 23.98 fps, 23.98 tbr, 1k tbn (default)
      Metadata:
        HANDLER_NAME    : VideoHandler
        VENDOR_ID       : [0][0][0][0]
        ENCODER         : Lavc61.19.100 libx265
        BPS             : 788562
        DURATION        : 00:24:06.528708333
        NUMBER_OF_FRAMES: 34682
        NUMBER_OF_BYTES : 142584670
        _STATISTICS_WRITING_APP: mkvpropedit v66.0.0 ('Josie') 64-bit
        _STATISTICS_WRITING_DATE_UTC: 2025-05-11 11:36:00
        _STATISTICS_TAGS: BPS DURATION NUMBER_OF_FRAMES NUMBER_OF_BYTES
  Stream #0:1: Audio: aac (LC), 48000 Hz, stereo, fltp (default)
      Metadata:
        HANDLER_NAME    : SoundHandler
        VENDOR_ID       : [0][0][0][0]
        ENCODER         : Lavc61.19.100 aac
        BPS             : 192845
        DURATION        : 00:24:06.698000000
        NUMBER_OF_FRAMES: 67815
        NUMBER_OF_BYTES : 34873689
        _STATISTICS_WRITING_APP: mkvpropedit v66.0.0 ('Josie') 64-bit
        _STATISTICS_WRITING_DATE_UTC: 2025-05-11 11:36:00
        _STATISTICS_TAGS: BPS DURATION NUMBER_OF_FRAMES NUMBER_OF_BYTES
Input #1, mov,mp4,m4a,3gp,3g2,mj2, from 'G:\Аниме\Онгоинги\!_35_Лето_2024\DreamCast-1\Слишком много проигравших героинь!\[DC] Make Heroine ga Oosugiru - 12_Telegram.mp4':
  Metadata:
    major_brand     : isom
    minor_version   : 512
    compatible_brands: isomiso2avc1mp41
    encoder         : Lavf61.1.100
  Duration: 00:24:06.64, start: 0.000000, bitrate: 3717 kb/s
  Stream #1:0[0x1](und): Video: h264 (High) (avc1 / 0x31637661), yuv420p(tv, bt709, progressive), 1920x1080 [SAR 1:1 DAR 16:9], 3569 kb/s, 23.98 fps, 23.98 tbr, 24k tbn (default)
      Metadata:
        handler_name    : VideoHandler
        vendor_id       : [0][0][0][0]
        encoder         : Lavc61.3.100 h264_qsv
  Stream #1:1[0x2](und): Audio: aac (HE-AACv2) (mp4a / 0x6134706D), 48000 Hz, stereo, fltp, 144 kb/s (default)
      Metadata:
        handler_name    : SoundHandler
        vendor_id       : [0][0][0][0]
Stream mapping:
  Stream #0:0 (hevc) -> settb:default
  Stream #1:0 (h264) -> settb:default
  ssim:default -> Stream #0:0 (wrapped_avframe)
  Stream #0:1 -> #0:1 (aac (native) -> pcm_s16le (native))
Output #0, null, to 'pipe:':
  Metadata:
    COMPATIBLE_BRANDS: isomiso2avc1mp41
    MAJOR_BRAND     : isom
    MINOR_VERSION   : 512
    encoder         : Lavf61.7.100
  Stream #0:0: Video: wrapped_avframe, yuv420p10le(tv, bt709, progressive), 1920x1080 [SAR 1:1 DAR 16:9], q=2-31, 200 kb/s, 23.98 fps, 23.98 tbn
      Metadata:
        encoder         : Lavc61.19.100 wrapped_avframe
  Stream #0:1: Audio: pcm_s16le, 48000 Hz, stereo, s16, 1536 kb/s (default)
      Metadata:
        HANDLER_NAME    : SoundHandler
        VENDOR_ID       : [0][0][0][0]
        _STATISTICS_TAGS: BPS DURATION NUMBER_OF_FRAMES NUMBER_OF_BYTES
        BPS             : 192845
        DURATION        : 00:24:06.698000000
        NUMBER_OF_FRAMES: 67815
        NUMBER_OF_BYTES : 34873689
        _STATISTICS_WRITING_APP: mkvpropedit v66.0.0 ('Josie') 64-bit
        _STATISTICS_WRITING_DATE_UTC: 2025-05-11 11:36:00
        encoder         : Lavc61.19.100 pcm_s16le
frame=  172 fps=0.0 q=-0.0 size=N/A time=00:00:07.17 bitrate=N/A speed=  14x    frame=  427 fps=412 q=-0.0 size=N/A time=00:00:17.80 bitrate=N/A speed=17.2x    frame=  688 fps=445 q=-0.0 size=N/A time=00:00:28.69 bitrate=N/A speed=18.6x    frame=  965 fps=467 q=-0.0 size=N/A time=00:00:40.24 bitrate=N/A speed=19.5x    frame= 1232 fps=476 q=-0.0 size=N/A time=00:00:51.38 bitrate=N/A speed=19.9x    frame= 1502 fps=484 q=-0.0 size=N/A time=00:01:02.68 bitrate=N/A speed=20.2x    frame= 1763 fps=488 q=-0.0 size=N/A time=00:01:13.53 bitrate=N/A speed=20.4x    frame= 2035 fps=492 q=-0.0 size=N/A time=00:01:24.87 bitrate=N/A speed=20.5x    frame= 2317 fps=500 q=-0.0 size=N/A time=00:01:36.63 bitrate=N/A speed=20.8x    frame= 2580 fps=500 q=-0.0 size=N/A time=00:01:47.60 bitrate=N/A speed=20.9x    frame= 2851 fps=502 q=-0.0 size=N/A time=00:01:58.91 bitrate=N/A speed=20.9x    frame= 3128 fps=505 q=-0.0 size=N/A time=00:02:10.46 bitrate=N/A speed=21.1x    frame= 3417 fps=509 q=-0.0 size=N/A time=00:02:22.51 bitrate=N/A speed=21.2x    frame= 3692 fps=511 q=-0.0 size=N/A time=00:02:33.98 bitrate=N/A speed=21.3x    frame= 3970 fps=513 q=-0.0 size=N/A time=00:02:45.58 bitrate=N/A speed=21.4x    frame= 4244 fps=515 q=-0.0 size=N/A time=00:02:57.01 bitrate=N/A speed=21.5x    frame= 4520 fps=515 q=-0.0 size=N/A time=00:03:08.52 bitrate=N/A speed=21.5x    frame= 4768 fps=513 q=-0.0 size=N/A time=00:03:18.86 bitrate=N/A speed=21.4x    frame= 5029 fps=513 q=-0.0 size=N/A time=00:03:29.75 bitrate=N/A speed=21.4x    frame= 5297 fps=513 q=-0.0 size=N/A time=00:03:40.92 bitrate=N/A speed=21.4x    frame= 5543 fps=511 q=-0.0 size=N/A time=00:03:51.18 bitrate=N/A speed=21.3x    frame= 5807 fps=512 q=-0.0 size=N/A time=00:04:02.20 bitrate=N/A speed=21.3x    frame= 6053 fps=511 q=-0.0 size=N/A time=00:04:12.46 bitrate=N/A speed=21.3x    frame= 6285 fps=508 q=-0.0 size=N/A time=00:04:22.13 bitrate=N/A speed=21.2x    frame= 6508 fps=505 q=-0.0 size=N/A time=00:04:31.43 bitrate=N/A speed=21.1x    frame= 6780 fps=505 q=-0.0 size=N/A time=00:04:42.78 bitrate=N/A speed=21.1x    frame= 7055 fps=506 q=-0.0 size=N/A time=00:04:54.25 bitrate=N/A speed=21.1x    frame= 7311 fps=506 q=-0.0 size=N/A time=00:05:04.92 bitrate=N/A speed=21.1x    frame= 7571 fps=506 q=-0.0 size=N/A time=00:05:15.77 bitrate=N/A speed=21.1x    frame= 7811 fps=505 q=-0.0 size=N/A time=00:05:25.78 bitrate=N/A speed=  21x    frame= 8039 fps=503 q=-0.0 size=N/A time=00:05:35.29 bitrate=N/A speed=  21x    frame= 8267 fps=501 q=-0.0 size=N/A time=00:05:44.80 bitrate=N/A speed=20.9x    frame= 8459 fps=497 q=-0.0 size=N/A time=00:05:52.81 bitrate=N/A speed=20.7x    frame= 8716 fps=497 q=-0.0 size=N/A time=00:06:03.52 bitrate=N/A speed=20.7x    frame= 8966 fps=497 q=-0.0 size=N/A time=00:06:13.95 bitrate=N/A speed=20.7x    frame= 9238 fps=497 q=-0.0 size=N/A time=00:06:25.30 bitrate=N/A speed=20.7x    frame= 9507 fps=498 q=-0.0 size=N/A time=00:06:36.52 bitrate=N/A speed=20.8x    frame= 9758 fps=498 q=-0.0 size=N/A time=00:06:46.98 bitrate=N/A speed=20.8x    frame= 9979 fps=496 q=-0.0 size=N/A time=00:06:56.20 bitrate=N/A speed=20.7x    frame=10220 fps=495 q=-0.0 size=N/A time=00:07:06.25 bitrate=N/A speed=20.7x    frame=10488 fps=496 q=-0.0 size=N/A time=00:07:17.43 bitrate=N/A speed=20.7x    frame=10709 fps=494 q=-0.0 size=N/A time=00:07:26.65 bitrate=N/A speed=20.6x    frame=10957 fps=494 q=-0.0 size=N/A time=00:07:36.99 bitrate=N/A speed=20.6x    frame=11227 fps=495 q=-0.0 size=N/A time=00:07:48.25 bitrate=N/A speed=20.6x    frame=11499 fps=495 q=-0.0 size=N/A time=00:07:59.60 bitrate=N/A speed=20.7x    frame=11765 fps=496 q=-0.0 size=N/A time=00:08:10.69 bitrate=N/A speed=20.7x    frame=12030 fps=496 q=-0.0 size=N/A time=00:08:21.75 bitrate=N/A speed=20.7x    frame=12283 fps=496 q=-0.0 size=N/A time=00:08:32.30 bitrate=N/A speed=20.7x    frame=12561 fps=497 q=-0.0 size=N/A time=00:08:43.89 bitrate=N/A speed=20.7x    frame=12823 fps=497 q=-0.0 size=N/A time=00:08:54.82 bitrate=N/A speed=20.7x    frame=13016 fps=495 q=-0.0 size=N/A time=00:09:02.87 bitrate=N/A speed=20.6x    frame=13237 fps=494 q=-0.0 size=N/A time=00:09:12.09 bitrate=N/A speed=20.6x    frame=13498 fps=494 q=-0.0 size=N/A time=00:09:22.97 bitrate=N/A speed=20.6x    frame=13753 fps=494 q=-0.0 size=N/A time=00:09:33.61 bitrate=N/A speed=20.6x    frame=13960 fps=492 q=-0.0 size=N/A time=00:09:42.24 bitrate=N/A speed=20.5x    frame=14194 fps=492 q=-0.0 size=N/A time=00:09:52.00 bitrate=N/A speed=20.5x    frame=14421 fps=491 q=-0.0 size=N/A time=00:10:01.47 bitrate=N/A speed=20.5x    frame=14651 fps=490 q=-0.0 size=N/A time=00:10:11.06 bitrate=N/A speed=20.4x    frame=14898 fps=490 q=-0.0 size=N/A time=00:10:21.37 bitrate=N/A speed=20.4x    frame=15094 fps=488 q=-0.0 size=N/A time=00:10:29.54 bitrate=N/A speed=20.3x    frame=15300 fps=486 q=-0.0 size=N/A time=00:10:38.13 bitrate=N/A speed=20.3x    frame=15559 fps=487 q=-0.0 size=N/A time=00:10:48.93 bitrate=N/A speed=20.3x    frame=15824 fps=487 q=-0.0 size=N/A time=00:10:59.99 bitrate=N/A speed=20.3x    frame=16077 fps=487 q=-0.0 size=N/A time=00:11:10.54 bitrate=N/A speed=20.3x    frame=16327 fps=487 q=-0.0 size=N/A time=00:11:20.97 bitrate=N/A speed=20.3x    frame=16615 fps=488 q=-0.0 size=N/A time=00:11:32.98 bitrate=N/A speed=20.4x    frame=16899 fps=489 q=-0.0 size=N/A time=00:11:44.82 bitrate=N/A speed=20.4x    frame=17163 fps=489 q=-0.0 size=N/A time=00:11:55.84 bitrate=N/A speed=20.4x    frame=17387 fps=489 q=-0.0 size=N/A time=00:12:05.18 bitrate=N/A speed=20.4x    frame=17626 fps=488 q=-0.0 size=N/A time=00:12:15.15 bitrate=N/A speed=20.4x    frame=17891 fps=489 q=-0.0 size=N/A time=00:12:26.20 bitrate=N/A speed=20.4x    frame=18155 fps=489 q=-0.0 size=N/A time=00:12:37.21 bitrate=N/A speed=20.4x    frame=18386 fps=488 q=-0.0 size=N/A time=00:12:46.84 bitrate=N/A speed=20.4x    frame=18647 fps=489 q=-0.0 size=N/A time=00:12:57.73 bitrate=N/A speed=20.4x    frame=18894 fps=489 q=-0.0 size=N/A time=00:13:08.03 bitrate=N/A speed=20.4x    frame=19155 fps=489 q=-0.0 size=N/A time=00:13:18.92 bitrate=N/A speed=20.4x    frame=19391 fps=488 q=-0.0 size=N/A time=00:13:28.76 bitrate=N/A speed=20.4x    frame=19608 fps=488 q=-0.0 size=N/A time=00:13:37.81 bitrate=N/A speed=20.3x    frame=19856 fps=487 q=-0.0 size=N/A time=00:13:48.16 bitrate=N/A speed=20.3x    frame=20077 fps=487 q=-0.0 size=N/A time=00:13:57.37 bitrate=N/A speed=20.3x    frame=20352 fps=487 q=-0.0 size=N/A time=00:14:08.84 bitrate=N/A speed=20.3x    frame=20621 fps=488 q=-0.0 size=N/A time=00:14:20.06 bitrate=N/A speed=20.3x    frame=20886 fps=488 q=-0.0 size=N/A time=00:14:31.12 bitrate=N/A speed=20.4x    frame=21161 fps=488 q=-0.0 size=N/A time=00:14:42.59 bitrate=N/A speed=20.4x    frame=21420 fps=489 q=-0.0 size=N/A time=00:14:53.39 bitrate=N/A speed=20.4x    frame=21668 fps=489 q=-0.0 size=N/A time=00:15:03.73 bitrate=N/A speed=20.4x    frame=21890 fps=488 q=-0.0 size=N/A time=00:15:12.99 bitrate=N/A speed=20.4x    frame=22134 fps=488 q=-0.0 size=N/A time=00:15:23.17 bitrate=N/A speed=20.3x    frame=22393 fps=488 q=-0.0 size=N/A time=00:15:33.97 bitrate=N/A speed=20.3x    frame=22661 fps=488 q=-0.0 size=N/A time=00:15:45.15 bitrate=N/A speed=20.4x    frame=22914 fps=488 q=-0.0 size=N/A time=00:15:55.70 bitrate=N/A speed=20.4x    frame=23141 fps=488 q=-0.0 size=N/A time=00:16:05.17 bitrate=N/A speed=20.3x    frame=23367 fps=487 q=-0.0 size=N/A time=00:16:14.59 bitrate=N/A speed=20.3x    frame=23575 fps=486 q=-0.0 size=N/A time=00:16:23.27 bitrate=N/A speed=20.3x    frame=23820 fps=486 q=-0.0 size=N/A time=00:16:33.53 bitrate=N/A speed=20.3x    frame=24041 fps=486 q=-0.0 size=N/A time=00:16:42.71 bitrate=N/A speed=20.3x    frame=24301 fps=486 q=-0.0 size=N/A time=00:16:53.55 bitrate=N/A speed=20.3x    frame=24574 fps=486 q=-0.0 size=N/A time=00:17:04.94 bitrate=N/A speed=20.3x    frame=24784 fps=486 q=-0.0 size=N/A time=00:17:13.69 bitrate=N/A speed=20.3x    frame=25040 fps=486 q=-0.0 size=N/A time=00:17:24.37 bitrate=N/A speed=20.3x    frame=25277 fps=485 q=-0.0 size=N/A time=00:17:34.26 bitrate=N/A speed=20.2x    frame=25539 fps=486 q=-0.0 size=N/A time=00:17:45.18 bitrate=N/A speed=20.3x    frame=25778 fps=485 q=-0.0 size=N/A time=00:17:55.15 bitrate=N/A speed=20.2x    frame=26027 fps=485 q=-0.0 size=N/A time=00:18:05.54 bitrate=N/A speed=20.2x    frame=26272 fps=485 q=-0.0 size=N/A time=00:18:15.76 bitrate=N/A speed=20.2x    frame=26517 fps=485 q=-0.0 size=N/A time=00:18:25.97 bitrate=N/A speed=20.2x    frame=26783 fps=485 q=-0.0 size=N/A time=00:18:37.07 bitrate=N/A speed=20.2x    frame=27042 fps=486 q=-0.0 size=N/A time=00:18:47.91 bitrate=N/A speed=20.3x    frame=27305 fps=486 q=-0.0 size=N/A time=00:18:58.84 bitrate=N/A speed=20.3x    frame=27548 fps=486 q=-0.0 size=N/A time=00:19:08.98 bitrate=N/A speed=20.3x    frame=27810 fps=486 q=-0.0 size=N/A time=00:19:19.90 bitrate=N/A speed=20.3x    frame=28065 fps=486 q=-0.0 size=N/A time=00:19:30.54 bitrate=N/A speed=20.3x    frame=28305 fps=486 q=-0.0 size=N/A time=00:19:40.55 bitrate=N/A speed=20.3x    frame=28541 fps=485 q=-0.0 size=N/A time=00:19:50.39 bitrate=N/A speed=20.2x    frame=28792 fps=485 q=-0.0 size=N/A time=00:20:00.86 bitrate=N/A speed=20.2x    frame=29025 fps=485 q=-0.0 size=N/A time=00:20:10.58 bitrate=N/A speed=20.2x    frame=29245 fps=485 q=-0.0 size=N/A time=00:20:19.76 bitrate=N/A speed=20.2x    frame=29486 fps=484 q=-0.0 size=N/A time=00:20:29.81 bitrate=N/A speed=20.2x    frame=29710 fps=484 q=-0.0 size=N/A time=00:20:39.15 bitrate=N/A speed=20.2x    frame=29982 fps=484 q=-0.0 size=N/A time=00:20:50.49 bitrate=N/A speed=20.2x    frame=30222 fps=484 q=-0.0 size=N/A time=00:21:00.50 bitrate=N/A speed=20.2x    frame=30445 fps=484 q=-0.0 size=N/A time=00:21:09.81 bitrate=N/A speed=20.2x    frame=30664 fps=483 q=-0.0 size=N/A time=00:21:18.94 bitrate=N/A speed=20.2x    frame=30901 fps=483 q=-0.0 size=N/A time=00:21:28.82 bitrate=N/A speed=20.1x    frame=31130 fps=483 q=-0.0 size=N/A time=00:21:38.38 bitrate=N/A speed=20.1x    frame=31371 fps=483 q=-0.0 size=N/A time=00:21:48.43 bitrate=N/A speed=20.1x    frame=31613 fps=483 q=-0.0 size=N/A time=00:21:58.52 bitrate=N/A speed=20.1x    frame=31849 fps=482 q=-0.0 size=N/A time=00:22:08.36 bitrate=N/A speed=20.1x    frame=32069 fps=482 q=-0.0 size=N/A time=00:22:17.54 bitrate=N/A speed=20.1x    frame=32300 fps=482 q=-0.0 size=N/A time=00:22:27.17 bitrate=N/A speed=20.1x    frame=32544 fps=482 q=-0.0 size=N/A time=00:22:37.35 bitrate=N/A speed=20.1x    frame=32776 fps=481 q=-0.0 size=N/A time=00:22:47.03 bitrate=N/A speed=20.1x    frame=33014 fps=481 q=-0.0 size=N/A time=00:22:56.95 bitrate=N/A speed=20.1x    frame=33245 fps=481 q=-0.0 size=N/A time=00:23:06.59 bitrate=N/A speed=20.1x    frame=33482 fps=481 q=-0.0 size=N/A time=00:23:16.47 bitrate=N/A speed=20.1x    frame=33728 fps=481 q=-0.0 size=N/A time=00:23:26.73 bitrate=N/A speed=20.1x    frame=33972 fps=481 q=-0.0 size=N/A time=00:23:36.91 bitrate=N/A speed=20.1x    frame=34198 fps=480 q=-0.0 size=N/A time=00:23:46.34 bitrate=N/A speed=  20x    frame=34438 fps=480 q=-0.0 size=N/A time=00:23:56.35 bitrate=N/A speed=  20x    [Parsed_ssim_10 @ 000001ffe339df00] SSIM Y:0.994262 (22.412270) U:0.993234 (21.696853) V:0.993221 (21.688089) All:0.993917 (22.158847)
[out#0/null @ 000001ffd667d040] video:14902KiB audio:271260KiB subtitle:0KiB other streams:0KiB global headers:0KiB muxing overhead: unknown
frame=34682 fps=480 q=-0.0 Lsize=N/A time=00:24:06.52 bitrate=N/A speed=  20x    
